<?xml version="1.0" encoding="UTF-8"?>
<svg version="1.1" xmlns="http://www.w3.org/2000/svg" width="512" height="512">
<path d="M0 0 C1.41210508 0.77366848 2.82286549 1.54979148 4.233078 2.3269043 C5.41172566 2.97480171 5.41172566 2.97480171 6.61418438 3.63578796 C10.4557665 5.83240891 14.08862229 8.31401982 17.73828125 10.8125 C18.55967087 11.36981812 19.38106049 11.92713623 20.2273407 12.50134277 C21.99818294 13.70295361 23.76799461 14.90608438 25.53686523 16.1105957 C30.34758174 19.38530192 35.16740809 22.64652062 39.98828125 25.90625 C40.98425323 26.57974487 41.98022522 27.25323975 43.00637817 27.94714355 C53.2813381 34.88389012 63.63548459 41.69811628 74 48.5 C88.56967112 58.06558484 103.06710064 67.72929016 117.5 77.5 C133.90014758 88.60131251 150.38574245 99.56469129 166.94580078 110.42602539 C175.76124079 116.21073852 184.55106196 122.02675536 193.27734375 127.9453125 C194.91535388 129.05246372 196.55345424 130.15948146 198.19165039 131.26635742 C201.20610808 133.30352747 204.21015948 135.35484096 207.20874023 137.4152832 C226.36563352 150.44201572 246.92581741 157.25342403 270.27734375 153.37890625 C287.0667506 149.88661837 301.17777316 140.23667768 315.06494141 130.66308594 C319.77400335 127.41752406 324.50595452 124.20554232 329.234375 120.98828125 C330.20870483 120.32406158 331.18303467 119.65984192 332.18688965 118.97549438 C342.3823281 112.03484428 352.68603254 105.26265109 363 98.5 C377.57072261 88.93604494 392.06710553 79.27066073 406.5 69.5 C422.82177297 58.45192834 439.23363245 47.54943579 455.70629883 36.7277832 C464.95861323 30.64807127 474.19691659 24.54898205 483.40234375 18.3984375 C484.77548233 17.48112099 484.77548233 17.48112099 486.17636108 16.54527283 C490.54810462 13.62345244 494.91743533 10.69808475 499.28417969 7.76879883 C500.82875036 6.73515043 502.37334528 5.70153825 503.91796875 4.66796875 C504.98010841 3.9531282 504.98010841 3.9531282 506.06370544 3.22384644 C510.88688639 0 510.88688639 0 512 0 C512.11420985 30.35325065 512.20262399 60.70647899 512.25532665 91.05989559 C512.26157973 94.6482478 512.26805139 98.23659959 512.2746582 101.82495117 C512.27596976 102.53928868 512.27728131 103.25362619 512.2786326 103.98961029 C512.3003538 115.53657717 512.33975703 127.08341883 512.38576398 138.63031157 C512.43262041 150.48984667 512.46031474 162.34931646 512.47044247 174.20894033 C512.47667087 180.86555746 512.49220264 187.52194683 512.52865028 194.17848778 C512.5627109 200.45018149 512.57303241 206.72147628 512.56553841 212.99325371 C512.56690843 215.28893454 512.57678024 217.58462939 512.59602737 219.88022995 C512.73755949 237.63912472 510.94975038 250.3222191 498.4375 263.75 C488.84567836 272.6039892 478.41178146 277.24312145 465.27399158 277.25726891 C464.16685632 277.26252802 464.16685632 277.26252802 463.03735468 277.26789337 C460.57453482 277.27716601 458.11195358 277.27229482 455.64912415 277.26742554 C453.8613194 277.27116389 452.07351629 277.27576615 450.28571576 277.28115618 C445.38058671 277.29337882 440.4755259 277.29312657 435.5703851 277.29076743 C430.27710173 277.29035908 424.9838402 277.30140022 419.69056702 277.31088257 C409.32262724 277.3274897 398.9547102 277.33299199 388.58675823 277.33410732 C380.15789949 277.33505797 371.72904825 277.33916909 363.30019188 277.34550858 C339.39681955 277.36312049 315.49346518 277.37234757 291.59008632 277.37084763 C289.65746014 277.37072776 289.65746014 277.37072776 287.68579102 277.37060547 C286.39579825 277.37052371 285.10580549 277.37044195 283.77672204 277.37035771 C262.87323545 277.3695449 241.96982094 277.38868128 221.06635521 277.4168822 C199.59692843 277.44561783 178.12753679 277.45942211 156.65809029 277.45769465 C144.60702896 277.45703097 132.55604317 277.46251379 120.50499916 277.48405075 C110.24387355 277.50227147 99.98285773 277.50660253 89.72172294 277.4930319 C84.48871638 277.48650672 79.25592042 277.48636897 74.02293396 277.5037384 C69.22676478 277.51949387 64.43097274 277.51658014 59.63481262 277.49917014 C57.90535509 277.4961057 56.17586925 277.49971155 54.44644514 277.51089029 C39.00833573 277.60402262 26.12256399 275.27395339 14.3125 264.5625 C13.549375 263.716875 12.78625 262.87125 12 262 C11.51917969 261.51144531 11.03835938 261.02289063 10.54296875 260.51953125 C4.34530868 253.91392394 -0.12783504 244.9319312 -0.12304783 235.75963974 C-0.12503888 234.91566061 -0.12702993 234.07168148 -0.12908131 233.20212722 C-0.12616847 232.27995099 -0.12325563 231.35777477 -0.12025452 230.40765381 C-0.12110894 229.42418354 -0.12196337 228.44071328 -0.12284368 227.42744088 C-0.12449432 224.12315836 -0.11898386 220.8189263 -0.11352539 217.51464844 C-0.1132434 215.14955649 -0.11340148 212.78446446 -0.1139679 210.41937256 C-0.11425542 203.99005477 -0.10836592 197.56075554 -0.10139394 191.13144207 C-0.09530885 185.09571792 -0.09477135 179.05999226 -0.09374207 173.02426556 C-0.09155338 161.06923343 -0.08489824 149.11420812 -0.07543945 137.15917969 C-0.06626061 125.54589878 -0.05918208 113.93261974 -0.05493164 102.31933594 C-0.05466892 101.60350789 -0.05440619 100.88767985 -0.05413551 100.15016004 C-0.05283047 96.55906549 -0.05156676 92.96797093 -0.05032361 89.37687635 C-0.03995669 59.58457954 -0.022269 29.7922904 0 0 Z " fill="#6C5689" transform="translate(0,171)"/>
<path d="M0 0 C0.73809018 -0.00350607 1.47618036 -0.00701215 2.23663691 -0.01062447 C4.69945677 -0.01989711 7.16203801 -0.01502592 9.62486744 -0.01015663 C11.41267218 -0.01389498 13.2004753 -0.01849724 14.98827583 -0.02388728 C19.89340488 -0.03610991 24.79846568 -0.03585767 29.70360649 -0.03349853 C34.99688985 -0.03309017 40.29015139 -0.04413131 45.58342457 -0.05361366 C55.95136435 -0.07022079 66.31928138 -0.07572309 76.68723335 -0.07683842 C85.11609209 -0.07778906 93.54494334 -0.08190019 101.97379971 -0.08823967 C125.87717203 -0.10585158 149.7805264 -0.11507866 173.68390527 -0.11357872 C175.61653144 -0.11345885 175.61653144 -0.11345885 177.58820057 -0.11333656 C178.87819333 -0.1132548 180.1681861 -0.11317304 181.49726955 -0.1130888 C202.40075613 -0.112276 223.30417064 -0.13141237 244.20763638 -0.1596133 C265.67706316 -0.18834892 287.14645479 -0.2021532 308.61590129 -0.20042574 C320.66696263 -0.19976206 332.71794842 -0.20524489 344.76899242 -0.22678185 C355.03011804 -0.24500257 365.29113385 -0.24933362 375.55226865 -0.235763 C380.7852752 -0.22923781 386.01807117 -0.22910006 391.25105762 -0.2464695 C396.0472268 -0.26222496 400.84301885 -0.25931123 405.63917897 -0.24190123 C407.36863649 -0.23883679 409.09812233 -0.24244265 410.82754644 -0.25362138 C426.26565585 -0.34675371 439.15142759 1.98331552 450.96149158 12.69476891 C451.72461658 13.54039391 452.48774158 14.38601891 453.27399158 15.25726891 C453.99522205 15.97269859 453.99522205 15.97269859 454.73102283 16.70258141 C464.22976479 26.65822487 465.74161801 39.14000128 465.55133533 52.21430016 C465.07961201 64.93674865 458.30916345 74.5664167 449.48898792 83.24985313 C446.04191057 86.37388423 442.29293266 88.86406634 438.37946033 91.36273766 C437.5317255 91.91581093 436.68399067 92.4688842 435.8105669 93.03871727 C433.98580427 94.2280194 432.15825809 95.41305979 430.3281908 96.59418297 C425.36350008 99.79911873 420.41995332 103.03644834 415.47321033 106.26898766 C414.45488117 106.93320732 413.43655201 107.59742699 412.38736439 108.28177452 C402.10743601 114.99605546 391.93634378 121.86689995 381.77399158 128.75726891 C366.43357501 139.14701279 351.00708977 149.39645562 335.51978016 159.56574059 C321.74477015 168.61384877 308.04825558 177.77068129 294.39899158 187.00726891 C281.20184672 195.93201533 267.98789445 204.82977841 254.69653797 213.61383629 C253.06492322 214.69287003 251.4345503 215.77378438 249.80554676 216.85675621 C233.00379184 228.01978003 218.68147007 236.08775321 197.91071033 232.71039391 C191.72565869 231.07747865 186.46669678 228.34923163 181.10211658 224.92523766 C180.41397877 224.49032509 179.72584095 224.05541252 179.01685047 223.60732079 C170.97471354 218.48758349 163.09246955 213.12890221 155.20905018 207.76947594 C139.3154246 196.96851598 123.33843441 186.30222872 107.27399158 175.75726891 C91.80856229 165.60295842 76.4317205 155.32731448 61.11185169 144.95483971 C48.19001477 136.20904995 35.20729627 127.56221137 22.16769886 118.99298668 C14.19817384 113.75527873 6.235171 108.50765102 -1.72600842 103.25726891 C-2.4834132 102.75803917 -3.24081799 102.25880943 -4.02117443 101.74445152 C-8.07127083 99.07303972 -12.11398848 96.39119816 -16.14425182 93.68994713 C-17.83152716 92.56207014 -19.52555565 91.44431522 -21.2199049 90.32709312 C-30.20410368 84.2743228 -38.1082119 77.9240936 -42.72600842 67.94476891 C-43.28288342 66.77301109 -43.83975842 65.60125328 -44.41350842 64.39398766 C-48.70937512 54.12737765 -48.40396856 40.38008649 -44.60100842 30.00726891 C-38.77398973 17.16807519 -28.75051981 7.61280226 -15.72600842 2.25726891 C-10.3252964 0.7128465 -5.6567639 0.0060915 0 0 Z " fill="#6C5689" transform="translate(46.72600841522217,63.74273109436035)"/>
</svg>
