<?xml version="1.0" encoding="UTF-8"?>
<svg version="1.1" xmlns="http://www.w3.org/2000/svg" width="512" height="512">
<path d="M0 0 C1.45108658 0.00273422 1.45108658 0.00273422 2.93148804 0.00552368 C17.26440977 0.05095174 31.21023917 0.55983928 45.3125 3.3125 C46.65803955 3.55395752 46.65803955 3.55395752 48.03076172 3.80029297 C107.84088904 14.62287989 165.35495829 48.68064457 202.3125 97.3125 C202.72918945 97.85277832 203.14587891 98.39305664 203.57519531 98.94970703 C211.2584873 108.9447116 218.00092968 119.40459036 224.3125 130.3125 C224.70679199 130.98974121 225.10108398 131.66698242 225.50732422 132.36474609 C238.68961173 155.2833756 247.29510918 180.85822563 252.625 206.6875 C252.77243652 207.39817627 252.91987305 208.10885254 253.07177734 208.84106445 C256.02497995 224.31508442 256.68672082 239.78962479 256.625 255.5 C256.62350952 256.44238525 256.62201904 257.38477051 256.6204834 258.35571289 C256.58023245 272.53245704 256.03169955 286.36206481 253.3125 300.3125 C253.14137695 301.21967773 252.97025391 302.12685547 252.79394531 303.06152344 C249.77739081 318.84760919 249.77739081 318.84760919 248.3125 320.3125 C245.68083379 320.41140832 243.07539989 320.44426613 240.44323635 320.43554783 C239.60464916 320.43670167 238.76606197 320.43785552 237.90206304 320.43904433 C235.05541185 320.4417186 232.20881576 320.43718221 229.36216736 320.43275452 C227.31540319 320.43319005 225.26863907 320.43406463 223.22187525 320.43534368 C217.56894694 320.4375921 211.91603739 320.43356266 206.26311147 320.42856562 C200.17786429 320.42426624 194.09261826 320.42570718 188.00737 320.4264679 C177.45477495 320.42699346 166.90218536 320.42387803 156.34959221 320.41823006 C145.27817697 320.41231954 134.20676418 320.40846543 123.13534737 320.40737724 C122.10400847 320.40727413 122.10400847 320.40727413 121.05183445 320.40716894 C117.56028113 320.40683062 114.06872781 320.40652923 110.57717449 320.40624207 C85.82578067 320.40413985 61.07439006 320.39739748 36.32299805 320.38793945 C12.27254249 320.37875985 -11.77791219 320.37167387 -35.82836914 320.36743164 C-36.56928935 320.36730011 -37.31020955 320.36716859 -38.07358189 320.36703308 C-45.51398862 320.36571459 -52.95439536 320.36443877 -60.39480211 320.36319422 C-75.55270646 320.36065778 -90.71061075 320.35783653 -105.86851501 320.35484314 C-106.56550023 320.35470585 -107.26248545 320.35456856 -107.98059143 320.35442711 C-154.54956231 320.34522144 -201.11853132 320.32935491 -247.6875 320.3125 C-249.40265472 315.22923298 -250.63926874 310.25344026 -251.6875 305 C-251.8525 304.21560547 -252.0175 303.43121094 -252.1875 302.62304688 C-255.29472778 287.17187126 -256.06299723 271.90677472 -256 256.1875 C-255.99817719 255.24128784 -255.99635437 254.29507568 -255.99447632 253.32019043 C-255.94843771 239.11150635 -255.39933711 225.29448438 -252.6875 211.3125 C-252.52652832 210.41402344 -252.36555664 209.51554688 -252.19970703 208.58984375 C-241.37558428 148.7816266 -207.3180061 91.2690163 -158.6875 54.3125 C-158.14722168 53.89581055 -157.60694336 53.47912109 -157.05029297 53.04980469 C-147.0552884 45.3665127 -136.59540964 38.62407032 -125.6875 32.3125 C-125.01025879 31.91820801 -124.33301758 31.52391602 -123.63525391 31.11767578 C-100.7166244 17.93538827 -75.14177437 9.32989082 -49.3125 4 C-48.60182373 3.85256348 -47.89114746 3.70512695 -47.15893555 3.55322266 C-31.51641634 0.56786213 -15.88080394 -0.0623098 0 0 Z " fill="#6C5689" transform="translate(255.6875,-0.3125)"/>
<path d="M0 0 C0.83580534 -0.00581376 1.67161068 -0.01162753 2.53274345 -0.01761746 C5.34015508 -0.03224329 8.14669596 -0.01832019 10.95410156 -0.00457001 C12.98441007 -0.00917789 15.01471525 -0.01553005 17.04501343 -0.02347898 C22.62953845 -0.04021076 28.21379082 -0.03190836 33.79831696 -0.01953411 C39.8188514 -0.01050172 45.83933823 -0.02444435 51.85986328 -0.0354538 C62.97410283 -0.05223318 74.08826718 -0.05074998 85.20250726 -0.03980792 C95.4696496 -0.02974935 105.73676 -0.02711718 116.00390625 -0.0318985 C117.02510539 -0.03235681 117.02510539 -0.03235681 118.06693482 -0.03282438 C120.83045758 -0.03406971 123.59398033 -0.03534331 126.35750306 -0.03666343 C152.28635849 -0.04890198 178.21515843 -0.03780156 204.1440053 -0.01627585 C227.18490045 0.00270687 250.22570718 0.00100837 273.26660156 -0.01811981 C299.1477494 -0.03953406 325.02884819 -0.04803406 350.91000366 -0.03567076 C353.66851806 -0.03438787 356.42703246 -0.03313651 359.18554688 -0.0318985 C359.86477337 -0.03158219 360.54399987 -0.03126588 361.24380898 -0.03093999 C371.50500068 -0.02638832 381.76615696 -0.03171449 392.02734375 -0.04181671 C403.69370525 -0.05324501 415.35998258 -0.05002744 427.02633476 -0.02869374 C432.98146366 -0.01816367 438.93641286 -0.01409491 444.89154053 -0.02729034 C450.33938626 -0.03917939 455.78688514 -0.03270918 461.23469925 -0.01138014 C463.20903809 -0.00689928 465.18340604 -0.00921341 467.15772629 -0.01888329 C469.83538893 -0.03099546 472.51185366 -0.01862507 475.18945312 0 C475.96131392 -0.00936466 476.73317471 -0.01872933 477.52842522 -0.02837777 C482.70018475 0.04383538 485.59745415 1.26546372 489.59472656 4.50336456 C493.2230632 8.32266628 493.90473114 11.38615462 494.09472656 16.50336456 C493.90473114 21.6205745 493.2230632 24.68406284 489.59472656 28.50336456 C484.8563822 32.34155411 481.12308944 33.07871946 475.18945312 33.00672913 C474.35364779 33.01254289 473.51784245 33.01835665 472.65670967 33.02434659 C469.84929805 33.03897242 467.04275716 33.02504932 464.23535156 33.01129913 C462.20504305 33.01590702 460.17473788 33.02225918 458.1444397 33.03020811 C452.55991467 33.04693988 446.97566231 33.03863749 441.39113617 33.02626324 C435.37060172 33.01723085 429.3501149 33.03117348 423.32958984 33.04218292 C412.21535029 33.0589623 401.10118594 33.05747911 389.98694587 33.04653705 C379.71980353 33.03647848 369.45269313 33.03384631 359.18554688 33.03862762 C358.50474745 33.03893316 357.82394802 33.03923871 357.1225183 33.0395535 C354.35899554 33.04079884 351.59547279 33.04207244 348.83195007 33.04339256 C322.90309463 33.05563111 296.9742947 33.04453069 271.04544783 33.02300497 C248.00455267 33.00402226 224.96374594 33.00572075 201.92285156 33.02484894 C176.04170372 33.04626319 150.16060493 33.05476319 124.27944946 33.04239988 C121.52093507 33.041117 118.76242066 33.03986564 116.00390625 33.03862762 C115.32467975 33.03831132 114.64545326 33.03799501 113.94564414 33.03766911 C103.68445244 33.03311745 93.42329617 33.03844362 83.16210938 33.04854584 C71.49574788 33.05997413 59.82947055 33.05675656 48.16311836 33.03542286 C42.20798946 33.02489279 36.25304027 33.02082403 30.2979126 33.03401947 C24.85006686 33.04590851 19.40256799 33.03943831 13.95475388 33.01810926 C11.98041503 33.0136284 10.00604709 33.01594254 8.03172684 33.02561241 C5.35406419 33.03772458 2.67759947 33.02535419 0 33.00672913 C-0.77186079 33.01609379 -1.54372158 33.02545846 -2.33897209 33.0351069 C-7.51073163 32.96289375 -10.40800103 31.7412654 -14.40527344 28.50336456 C-18.03361007 24.68406284 -18.71527802 21.6205745 -18.90527344 16.50336456 C-18.71527802 11.38615462 -18.03361007 8.32266628 -14.40527344 4.50336456 C-9.66692908 0.66517502 -5.93363631 -0.07199033 0 0 Z " fill="#6C5689" transform="translate(18.4052734375,351.4966354370117)"/>
<path d="M0 0 C0.67372147 -0.00581376 1.34744293 -0.01162753 2.0415802 -0.01761746 C4.29769864 -0.03220815 6.55272751 -0.01833775 8.80883789 -0.00457001 C10.44316667 -0.00917932 12.0774913 -0.01553244 13.71180725 -0.02347898 C18.20180347 -0.04019136 22.69146001 -0.03191731 27.18145752 -0.01953411 C32.02407137 -0.01049375 36.86662632 -0.02444831 41.70922852 -0.0354538 C51.19547698 -0.05325443 60.68159895 -0.04939215 70.1678524 -0.03780323 C77.87647923 -0.02877527 85.58507057 -0.02754215 93.29370117 -0.0318985 C94.39019895 -0.03251143 95.48669672 -0.03312436 96.6164217 -0.03375587 C98.84383012 -0.03503475 101.07123853 -0.0363316 103.29864693 -0.03764623 C124.19251875 -0.04905656 145.08632042 -0.03593122 165.98018074 -0.01444477 C183.91398702 0.00342661 201.84768973 0.00032263 219.78149414 -0.01811981 C240.59982509 -0.03951852 261.41809452 -0.04795788 282.23643494 -0.03567076 C284.45571898 -0.03439654 286.67500304 -0.03313906 288.89428711 -0.0318985 C289.98626058 -0.0312814 291.07823404 -0.03066429 292.20329762 -0.03002849 C299.90402005 -0.0265726 307.60470352 -0.0324091 315.30541992 -0.04181671 C324.68809716 -0.05302696 334.07064051 -0.05001714 343.45330238 -0.02869374 C348.24189245 -0.01817023 353.03025917 -0.01408365 357.81884766 -0.02729034 C362.2008803 -0.03919313 366.58248217 -0.03268673 370.96447563 -0.01138014 C372.55119843 -0.00690509 374.13795749 -0.00920057 375.72465706 -0.01888329 C377.87962005 -0.03102691 380.03310282 -0.01859521 382.18798828 0 C383.38541153 0.00064941 384.58283478 0.00129882 385.81654358 0.00196791 C390.91119161 0.78136623 393.98388865 3.33483247 397.46899414 7.00336456 C399.86702989 12.16836465 399.84780949 16.90359336 399.09399414 22.50336456 C396.78330437 27.48023484 393.80811455 29.81086951 389.09399414 32.50336456 C385.81654358 33.00476122 385.81654358 33.00476122 382.18798828 33.00672913 C381.51426682 33.01254289 380.84054535 33.01835665 380.14640808 33.02434659 C377.89028964 33.03893727 375.63526077 33.02506688 373.37915039 33.01129913 C371.74482162 33.01590845 370.11049699 33.02226157 368.47618103 33.03020811 C363.98618481 33.04692049 359.49652827 33.03864643 355.00653076 33.02626324 C350.16391691 33.01722287 345.32136196 33.03117744 340.47875977 33.04218292 C330.9925113 33.05998356 321.50638933 33.05612127 312.02013588 33.04453236 C304.31150905 33.03550439 296.60291771 33.03427128 288.89428711 33.03862762 C287.24954045 33.03954702 287.24954045 33.03954702 285.57156658 33.04048499 C283.34415816 33.04176388 281.11674975 33.04306073 278.88934135 33.04437536 C257.99546953 33.05578568 237.10166786 33.04266035 216.20780754 33.02117389 C198.27400126 33.00330251 180.34029855 33.00640649 162.40649414 33.02484894 C141.58816319 33.04624765 120.76989376 33.05468701 99.95155334 33.04239988 C97.7322693 33.04112567 95.51298524 33.03986818 93.29370117 33.03862762 C92.20172771 33.03801052 91.10975424 33.03739342 89.98469067 33.03675762 C82.28396823 33.03330172 74.58328476 33.03913823 66.88256836 33.04854584 C57.49989112 33.05975609 48.11734777 33.05674626 38.7346859 33.03542286 C33.94609583 33.02489935 29.15772911 33.02081278 24.36914062 33.03401947 C19.98710798 33.04592226 15.60550611 33.03941585 11.22351265 33.01810926 C9.63678985 33.01363421 8.05003079 33.0159297 6.46333122 33.02561241 C4.30836823 33.03775604 2.15488546 33.02532434 0 33.00672913 C-1.19742325 33.00607972 -2.3948465 33.00543031 -3.6285553 33.00476122 C-8.72320333 32.22536289 -11.79590037 29.67189665 -15.28100586 26.00336456 C-17.67904161 20.83836448 -17.65982121 16.10313576 -16.90600586 10.50336456 C-13.49255297 3.15131218 -7.9695115 0.00432218 0 0 Z " fill="#6C5689" transform="translate(64.906005859375,415.4966354370117)"/>
<path d="M0 0 C1.05489624 -0.00935994 1.05489624 -0.00935994 2.13110352 -0.01890898 C4.47576936 -0.03479977 6.81938988 -0.02225106 9.1640625 -0.00964355 C10.84977828 -0.01506645 12.53548932 -0.02219005 14.22119141 -0.03088379 C18.79145963 -0.04910026 23.36136618 -0.04205658 27.93164062 -0.02936745 C32.71745774 -0.01923109 37.50324416 -0.02863489 42.2890625 -0.03491211 C50.32557731 -0.04218666 58.36194503 -0.03260586 66.3984375 -0.0135498 C75.68597197 0.00821857 84.97315519 0.00116706 94.26068115 -0.02085543 C102.23877974 -0.0390149 110.21677267 -0.04156507 118.19488525 -0.03110075 C122.95810706 -0.02486883 127.72116384 -0.02402189 132.484375 -0.0372467 C136.96279317 -0.04881255 141.44075904 -0.04076615 145.91912842 -0.01766968 C147.56141408 -0.0123865 149.20373788 -0.01388971 150.8460083 -0.02272034 C153.09055875 -0.03367555 155.33366615 -0.01991476 157.578125 0 C158.83318848 0.0015081 160.08825195 0.0030162 161.38134766 0.00457001 C166.5664884 0.77048389 169.61909387 3.27638864 173.1640625 7.00793457 C175.56209825 12.17293466 175.54287785 16.90816337 174.7890625 22.50793457 C172.47916652 27.48309515 169.50950231 29.82698187 164.7890625 32.50793457 C161.38134766 33.01129913 161.38134766 33.01129913 157.578125 33.01586914 C156.52322876 33.02522908 156.52322876 33.02522908 155.44702148 33.03477812 C153.10235564 33.05066891 150.75873512 33.0381202 148.4140625 33.0255127 C146.72834672 33.03093559 145.04263568 33.03805919 143.35693359 33.04675293 C138.78666537 33.0649694 134.21675882 33.05792572 129.64648438 33.04523659 C124.86066726 33.03510023 120.07488084 33.04450404 115.2890625 33.05078125 C107.25254769 33.0580558 99.21617997 33.048475 91.1796875 33.02941895 C81.89215303 33.00765057 72.60496981 33.01470208 63.31744385 33.03672457 C55.33934526 33.05488404 47.36135233 33.05743421 39.38323975 33.04696989 C34.62001794 33.04073798 29.85696116 33.03989103 25.09375 33.05311584 C20.61533183 33.06468169 16.13736596 33.05663529 11.65899658 33.03353882 C10.01671092 33.02825564 8.37438712 33.02975885 6.7321167 33.03858948 C4.48756625 33.04954469 2.24445885 33.0357839 0 33.01586914 C-1.25506348 33.01436104 -2.51012695 33.01285294 -3.80322266 33.01129913 C-8.9883634 32.24538525 -12.04096887 29.7394805 -15.5859375 26.00793457 C-17.98397325 20.84293448 -17.96475285 16.10770577 -17.2109375 10.50793457 C-13.71687306 2.98225731 -8.11362412 0.00974945 0 0 Z " fill="#6C5689" transform="translate(177.2109375,479.4920654296875)"/>
</svg>
